<?xml version="1.0" encoding="iso-8859-1"?>
<!-- Generator: Adobe Illustrator 19.0.0, SVG Export Plug-In . SVG Version: 6.00 Build 0)  -->
<svg xmlns="http://www.w3.org/2000/svg" xmlns:xlink="http://www.w3.org/1999/xlink" version="1.1" id="Layer_1" x="0px" y="0px" viewBox="0 0 512 512" style="enable-background:new 0 0 512 512;" xml:space="preserve" width="512px" height="512px">
<g>
	<g>
		<path d="M369.018,46.807C338.818,16.622,298.682,0,256,0C167.87,0,96.169,71.7,96.169,159.831v192.339    C96.169,440.3,167.87,512,256,512s159.831-71.7,159.831-159.831V159.831C415.831,117.149,399.208,77.013,369.018,46.807z     M388.741,352.169c0,73.194-59.546,132.741-132.741,132.741s-132.741-59.546-132.741-132.741V159.831    C123.259,86.636,182.806,27.09,256,27.09c35.447,0,68.784,13.806,93.863,38.873c25.072,25.084,38.878,58.421,38.878,93.868    V352.169z" fill="#666666"/>
	</g>
</g>
<g>
	<g>
		<path d="M256.014,83.979c-7.481,0-13.545,6.064-13.545,13.545v31.831c0,7.481,6.064,13.545,13.545,13.545    c7.481,0,13.545-6.064,13.545-13.545V97.524C269.559,90.043,263.494,83.979,256.014,83.979z" fill="#666666"/>
	</g>
</g>
<g>
	<g>
		<path d="M256.014,152.099c-7.481,0-13.545,6.064-13.545,13.545v4.007c0,7.481,6.064,13.545,13.545,13.545    c7.481,0,13.545-6.064,13.545-13.545v-4.007C269.559,158.163,263.494,152.099,256.014,152.099z" fill="#666666"/>
	</g>
</g>
<g>
</g>
<g>
</g>
<g>
</g>
<g>
</g>
<g>
</g>
<g>
</g>
<g>
</g>
<g>
</g>
<g>
</g>
<g>
</g>
<g>
</g>
<g>
</g>
<g>
</g>
<g>
</g>
<g>
</g>
</svg>
